<svg xmlns="http://www.w3.org/2000/svg" viewBox="0 0 32 32"><path fill="#00D5B5" fill-rule="evenodd" d="M12.64 10.16H16v5.16H9.09a7.92 7.92 0 003.55-5.16zM2 10.16h9.37c-.92 3.1-3.29 5.16-7.18 5.16H2v-5.16zm9.59-1.27H5.85c.4-.53.57-1.32.57-2.2V3.73h5.25v3.99c0 .43 0 .83-.08 1.18zm-5.7 7.7h5.78v7.75c0 1.88.88 2.5 2.54 2.5.7 0 1.5-.1 1.8-.18v4.81s-1.14.53-3.28.53c-4.2 0-6.83-2.5-6.83-6.65v-8.76zm23.08 10.2v4.95c-.84.17-1.5.26-2.41.26-4.2 0-6.83-2.45-6.83-6.61V0h5.73v24.43c0 1.88 1.06 2.4 2.5 2.4.3 0 .61 0 1-.04z"/></svg>