<svg data-name="Layer 1" xmlns="http://www.w3.org/2000/svg" viewBox="0 0 48 48"><path fill="#48d5b5" d="M0 0h48v48H0z"/><path d="M22.91 23.08h-7.15c1-.7 1.47-1 2-1.44a9.64 9.64 0 002.66-4.09h2.53zm-15.67 0v-5.53h11.25a9.35 9.35 0 01-3.57 4.16A11.08 11.08 0 019 23.08zm16.6 13.18v5.58a7.9 7.9 0 01-3.67.6c-5.19 0-8.32-2.88-8.32-7.77v-9.75h6.45v8.75c0 2.11 1.62 2.81 3.76 2.79a9.51 9.51 0 001.78-.2zm-5.54-27h-6.45v4a4.47 4.47 0 01-.92 2.44h7.37zm19.64 27.2c-2 0-3-.68-3-2.79V5.56h-6.49v29.51c0 4 2.67 7.37 7.81 7.37a14 14 0 004.17-.4v-5.9a9.31 9.31 0 01-2.49.32z" fill="#fff" data-name="Trainline logo symbol white 260x260"/></svg>