<svg xmlns="http://www.w3.org/2000/svg" width="32" height="32" fill="none" viewBox="0 0 32 32">
  <path fill="#00A88F" fill-rule="evenodd" d="M17.943 6.183c3.212-3.204 8.437-3.204 11.648 0 3.212 3.203 3.212 8.416 0 11.62l-11.26 11.232a3.3 3.3 0 01-4.659 0l13.59-13.556a4.892 4.892 0 001.447-3.486 4.891 4.891 0 00-1.447-3.486 4.956 4.956 0 00-6.989 0l-8.93 8.908-4.271-4.26a1.64 1.64 0 010-2.324 1.65 1.65 0 012.33 0l1.94 1.936 6.601-6.584zm-15.53 0c3.08-3.074 8.014-3.198 11.246-.375l-2.338 2.333a4.958 4.958 0 00-6.579.366 4.927 4.927 0 000 6.972l6.6 6.584 11.26-11.232a1.65 1.65 0 012.33 0 1.64 1.64 0 010 2.323l-13.59 13.557-8.93-8.909A8.153 8.153 0 010 11.992c0-2.194.857-4.258 2.412-5.81z" clip-rule="evenodd"/>
</svg>
